<mxfile host="app.diagrams.net" agent="Mozilla/5.0 (Macintosh; Intel Mac OS X 10_15_7) AppleWebKit/537.36 (KHTML, like Gecko) Chrome/136.0.0.0 Safari/537.36" version="27.0.6">
  <diagram id="C5RBs43oDa-KdzZeNtuy" name="Page-1">
    <mxGraphModel dx="1412" dy="810" grid="1" gridSize="10" guides="1" tooltips="1" connect="1" arrows="1" fold="1" page="1" pageScale="1" pageWidth="827" pageHeight="1169" math="0" shadow="0">
      <root>
        <mxCell id="WIyWlLk6GJQsqaUBKTNV-0" />
        <mxCell id="WIyWlLk6GJQsqaUBKTNV-1" parent="WIyWlLk6GJQsqaUBKTNV-0" />
        <mxCell id="mgB_kJZuUdZ8LcaA87Wb-0" value="Client" style="rounded=1;whiteSpace=wrap;html=1;fontSize=12;glass=0;strokeWidth=1;shadow=1;" parent="WIyWlLk6GJQsqaUBKTNV-1" vertex="1">
          <mxGeometry x="120" y="80" width="80" height="40" as="geometry" />
        </mxCell>
        <mxCell id="mgB_kJZuUdZ8LcaA87Wb-1" value="&quot;Definitely Not&quot;" style="rounded=1;whiteSpace=wrap;html=1;fontSize=12;glass=0;strokeWidth=1;shadow=1;" parent="WIyWlLk6GJQsqaUBKTNV-1" vertex="1">
          <mxGeometry x="320" y="160" width="120" height="40" as="geometry" />
        </mxCell>
        <mxCell id="mgB_kJZuUdZ8LcaA87Wb-2" value="Bloom Filter" style="rounded=1;whiteSpace=wrap;html=1;fontSize=12;glass=0;strokeWidth=1;shadow=1;" parent="WIyWlLk6GJQsqaUBKTNV-1" vertex="1">
          <mxGeometry x="280" y="80" width="80" height="40" as="geometry" />
        </mxCell>
        <mxCell id="mgB_kJZuUdZ8LcaA87Wb-3" value="Redis" style="rounded=1;whiteSpace=wrap;html=1;fontSize=12;glass=0;strokeWidth=1;shadow=1;" parent="WIyWlLk6GJQsqaUBKTNV-1" vertex="1">
          <mxGeometry x="440" y="80" width="80" height="40" as="geometry" />
        </mxCell>
        <mxCell id="mgB_kJZuUdZ8LcaA87Wb-4" value="Database" style="rounded=1;whiteSpace=wrap;html=1;fontSize=12;glass=0;strokeWidth=1;shadow=1;" parent="WIyWlLk6GJQsqaUBKTNV-1" vertex="1">
          <mxGeometry x="600" y="80" width="80" height="40" as="geometry" />
        </mxCell>
        <mxCell id="mgB_kJZuUdZ8LcaA87Wb-7" value="Drop request early" style="rounded=1;whiteSpace=wrap;html=1;fontSize=12;glass=0;strokeWidth=1;shadow=1;" parent="WIyWlLk6GJQsqaUBKTNV-1" vertex="1">
          <mxGeometry x="520" y="160" width="160" height="40" as="geometry" />
        </mxCell>
        <mxCell id="mgB_kJZuUdZ8LcaA87Wb-8" value="" style="endArrow=block;html=1;rounded=0;exitX=1;exitY=0.5;exitDx=0;exitDy=0;entryX=0;entryY=0.5;entryDx=0;entryDy=0;endFill=0;shadow=1;" parent="WIyWlLk6GJQsqaUBKTNV-1" source="mgB_kJZuUdZ8LcaA87Wb-0" target="mgB_kJZuUdZ8LcaA87Wb-2" edge="1">
          <mxGeometry width="50" height="50" relative="1" as="geometry">
            <mxPoint x="610" y="-20" as="sourcePoint" />
            <mxPoint x="660" y="-70" as="targetPoint" />
          </mxGeometry>
        </mxCell>
        <mxCell id="mgB_kJZuUdZ8LcaA87Wb-9" value="" style="endArrow=block;html=1;rounded=0;exitX=1;exitY=0.5;exitDx=0;exitDy=0;entryX=0;entryY=0.5;entryDx=0;entryDy=0;endFill=0;shadow=1;" parent="WIyWlLk6GJQsqaUBKTNV-1" source="mgB_kJZuUdZ8LcaA87Wb-2" target="mgB_kJZuUdZ8LcaA87Wb-3" edge="1">
          <mxGeometry width="50" height="50" relative="1" as="geometry">
            <mxPoint x="610" y="-20" as="sourcePoint" />
            <mxPoint x="660" y="-70" as="targetPoint" />
          </mxGeometry>
        </mxCell>
        <mxCell id="mgB_kJZuUdZ8LcaA87Wb-10" value="" style="endArrow=block;html=1;rounded=0;exitX=1;exitY=0.5;exitDx=0;exitDy=0;entryX=0;entryY=0.5;entryDx=0;entryDy=0;endFill=0;shadow=1;" parent="WIyWlLk6GJQsqaUBKTNV-1" source="mgB_kJZuUdZ8LcaA87Wb-3" target="mgB_kJZuUdZ8LcaA87Wb-4" edge="1">
          <mxGeometry width="50" height="50" relative="1" as="geometry">
            <mxPoint x="610" y="-20" as="sourcePoint" />
            <mxPoint x="660" y="-70" as="targetPoint" />
          </mxGeometry>
        </mxCell>
        <mxCell id="mgB_kJZuUdZ8LcaA87Wb-11" value="" style="endArrow=block;html=1;rounded=0;exitX=0.5;exitY=1;exitDx=0;exitDy=0;entryX=0.5;entryY=0;entryDx=0;entryDy=0;endFill=0;shadow=1;" parent="WIyWlLk6GJQsqaUBKTNV-1" source="mgB_kJZuUdZ8LcaA87Wb-2" target="mgB_kJZuUdZ8LcaA87Wb-1" edge="1">
          <mxGeometry width="50" height="50" relative="1" as="geometry">
            <mxPoint x="610" y="-20" as="sourcePoint" />
            <mxPoint x="660" y="-70" as="targetPoint" />
          </mxGeometry>
        </mxCell>
        <mxCell id="mgB_kJZuUdZ8LcaA87Wb-12" value="" style="endArrow=block;html=1;rounded=0;exitX=1;exitY=0.5;exitDx=0;exitDy=0;entryX=0;entryY=0.5;entryDx=0;entryDy=0;endFill=0;shadow=1;" parent="WIyWlLk6GJQsqaUBKTNV-1" source="mgB_kJZuUdZ8LcaA87Wb-1" target="mgB_kJZuUdZ8LcaA87Wb-7" edge="1">
          <mxGeometry width="50" height="50" relative="1" as="geometry">
            <mxPoint x="610" y="-20" as="sourcePoint" />
            <mxPoint x="660" y="-70" as="targetPoint" />
          </mxGeometry>
        </mxCell>
      </root>
    </mxGraphModel>
  </diagram>
</mxfile>
